<svg xmlns="http://www.w3.org/2000/svg" role="img" viewBox="0 0 2000 2000">
  <title>HaloKYC color icon</title>
  <defs>
    <linearGradient id="blue" x1="0" y1="0" x2="1" y2="1">
      <stop offset="0" stop-color="#d6f15a"/>
      <stop offset="1" stop-color="#c8e64f"/>
    </linearGradient>
    <linearGradient id="navy" x1="0" y1="0" x2="0" y2="1">
      <stop offset="0" stop-color="#173426"/>
      <stop offset="1" stop-color="#10271c"/>
    </linearGradient>
    <linearGradient id="paper" x1="0" y1="0" x2="0" y2="1">
      <stop offset="0" stop-color="#fbf8ef"/>
      <stop offset="1" stop-color="#f7f3e8"/>
    </linearGradient>
  </defs>
  <path fill="url(#blue)" fill-rule="evenodd" d="M483 89L1516 89L1551 92L1553 94L1570 95L1571 97L1584 98L1586 100L1592 100L1594 102L1603 103L1604 105L1613 106L1614 108L1619 108L1620 110L1627 111L1628 113L1635 114L1636 116L1640 116L1644 119L1648 119L1648 120L1648 121L1665 127L1666 129L1675 132L1686 140L1689 140L1690 142L1707 151L1707 152L1707 153L1711 154L1723 164L1728 166L1750 186L1758 191L1758 192L1758 193L1761 194L1761 195L1761 196L1762 196L1763 196L1764 199L1765 199L1766 199L1766 200L1766 201L1767 201L1768 201L1769 204L1770 204L1771 204L1772 207L1777 210L1777 211L1777 212L1778 212L1779 212L1779 213L1779 214L1785 219L1785 220L1785 221L1786 221L1787 221L1787 222L1787 223L1792 227L1793 231L1794 231L1795 231L1795 232L1795 233L1804 242L1806 247L1811 252L1812 256L1816 259L1820 268L1821 268L1822 268L1822 271L1824 272L1831 286L1833 287L1833 290L1838 296L1841 306L1842 306L1843 306L1844 312L1846 313L1846 316L1852 327L1852 331L1854 332L1865 364L1868 381L1870 382L1873 404L1875 407L1876 427L1878 430L1879 1491L1875 1532L1873 1535L1870 1556L1868 1558L1867 1569L1865 1570L1865 1575L1863 1577L1862 1585L1860 1586L1860 1591L1857 1595L1854 1608L1853 1608L1852 1608L1851 1615L1849 1616L1846 1626L1844 1627L1844 1630L1841 1633L1841 1636L1836 1643L1835 1648L1830 1654L1830 1657L1823 1666L1819 1675L1818 1675L1817 1675L1817 1678L1812 1683L1811 1687L1804 1694L1803 1698L1802 1698L1801 1698L1792 1712L1791 1712L1790 1712L1790 1713L1790 1714L1785 1718L1785 1719L1785 1720L1782 1721L1782 1722L1782 1723L1776 1728L1776 1729L1776 1730L1760 1746L1759 1746L1758 1746L1757 1749L1750 1753L1747 1758L1741 1761L1741 1762L1741 1763L1731 1769L1720 1779L1719 1779L1718 1779L1699 1793L1696 1793L1687 1800L1683 1801L1682 1803L1679 1803L1676 1806L1667 1809L1666 1811L1661 1812L1654 1817L1643 1820L1642 1822L1636 1823L1629 1827L1622 1828L1621 1830L1582 1841L1576 1841L1573 1843L1531 1849L470 1849L427 1843L425 1841L418 1841L411 1838L406 1838L404 1836L395 1835L394 1833L389 1833L384 1830L379 1830L378 1828L371 1827L370 1825L366 1825L362 1822L351 1819L350 1817L334 1811L333 1809L330 1809L327 1806L319 1803L318 1801L310 1798L296 1788L292 1787L292 1786L292 1785L282 1780L268 1768L263 1766L263 1765L263 1764L256 1760L256 1759L256 1758L250 1755L247 1750L246 1750L245 1750L233 1737L232 1737L231 1737L230 1734L229 1734L228 1734L223 1729L223 1728L223 1727L212 1716L212 1715L212 1714L211 1714L210 1714L210 1713L210 1712L204 1707L196 1694L195 1694L194 1694L193 1690L191 1689L191 1688L191 1687L190 1687L189 1687L188 1683L183 1678L183 1675L182 1675L181 1675L177 1666L167 1652L167 1649L165 1648L164 1643L162 1642L161 1637L159 1636L159 1633L154 1626L145 1601L143 1600L140 1586L138 1585L137 1577L133 1569L132 1560L130 1558L129 1546L127 1545L121 1501L121 441L125 406L127 403L130 381L132 379L132 374L135 368L138 353L140 352L140 348L143 343L143 339L145 338L146 331L148 330L148 326L151 322L151 319L153 318L154 312L156 311L159 302L161 301L162 296L164 295L165 290L170 284L170 281L177 272L178 268L179 268L180 268L184 259L194 247L199 238L202 236L202 235L202 234L203 234L204 234L204 233L204 232L218 217L218 216L218 215L219 215L220 215L220 214L220 213L223 212L223 211L223 210L228 207L228 206L228 205L231 204L231 203L231 202L236 199L236 198L236 197L239 196L239 195L239 194L242 193L244 189L245 189L246 189L269 168L277 164L277 163L277 162L288 156L290 153L293 153L293 152L293 151L294 151L295 151L296 149L300 148L311 140L314 140L314 139L314 138L319 137L325 132L328 132L329 130L332 130L335 127L338 127L348 121L352 121L352 120L352 119L356 119L360 116L364 116L365 114L372 113L373 111L386 108L387 106L396 105L397 103L407 102L409 100L415 100L417 98L429 97L431 95L448 94L450 92L483 89ZM676 543L672 544L672 545L672 546L671 546L670 546L667 551L667 1045L782 1047L861 1044L862 721L858 691L850 664L848 663L848 659L846 658L845 652L843 651L842 646L837 640L837 637L835 636L834 632L832 631L826 620L823 618L823 617L823 616L822 616L821 616L819 611L801 592L800 592L799 592L794 586L793 586L792 586L792 585L792 584L778 575L778 574L778 573L775 573L773 570L770 570L770 569L770 568L765 567L765 566L765 565L762 565L759 562L750 559L750 558L750 557L746 557L743 554L730 551L729 549L700 543L676 543ZM1308 544L1284 549L1283 551L1279 551L1274 554L1270 554L1269 556L1263 557L1262 559L1259 559L1256 562L1253 562L1252 564L1247 565L1238 572L1234 573L1232 576L1219 584L1219 585L1219 586L1213 589L1208 595L1207 595L1206 595L1206 596L1206 597L1203 598L1203 599L1203 600L1202 600L1201 600L1201 601L1201 602L1198 603L1197 606L1196 606L1195 606L1195 607L1195 608L1190 612L1187 618L1176 630L1176 633L1173 635L1173 638L1172 638L1171 638L1170 643L1168 644L1165 652L1162 655L1162 658L1160 659L1158 667L1155 671L1154 678L1152 679L1149 694L1147 696L1146 707L1144 710L1144 720L1142 728L1142 1014L1168 1011L1182 1007L1196 1006L1197 1004L1211 1003L1214 1001L1237 998L1239 996L1252 995L1254 993L1261 993L1269 990L1275 990L1277 988L1290 987L1291 985L1297 985L1300 983L1309 982L1311 980L1323 979L1324 977L1336 975L1336 553L1334 549L1328 544L1308 544ZM1416 774L1413 776L1413 777L1413 778L1464 784L1465 786L1474 786L1482 789L1489 789L1491 791L1502 792L1503 794L1513 795L1515 797L1528 800L1529 802L1533 802L1562 816L1562 817L1562 818L1565 818L1577 829L1578 829L1579 829L1584 837L1585 837L1586 837L1586 838L1586 839L1588 840L1589 845L1590 845L1591 845L1592 853L1594 855L1594 873L1588 887L1583 892L1581 897L1580 897L1579 897L1578 900L1573 903L1573 904L1573 905L1572 905L1571 905L1562 914L1552 919L1552 920L1552 921L1548 922L1534 932L1525 935L1525 936L1525 937L1519 938L1519 939L1519 940L1509 943L1508 945L1503 946L1502 948L1499 948L1495 951L1484 954L1483 956L1480 956L1476 959L1472 959L1471 961L1465 962L1455 967L1451 967L1447 970L1442 970L1442 971L1442 972L1428 975L1426 977L1419 978L1418 980L1403 983L1398 986L1383 989L1381 991L1375 991L1374 993L1364 994L1363 996L1346 999L1340 1002L1334 1002L1332 1004L1321 1005L1319 1007L1301 1010L1299 1012L1289 1013L1286 1015L1280 1015L1277 1017L1265 1018L1263 1020L1251 1021L1249 1023L1226 1026L1224 1028L1211 1029L1208 1031L1183 1034L1180 1036L1164 1037L1162 1039L1135 1042L1132 1044L1114 1045L1111 1047L1094 1048L1089 1050L1078 1050L1074 1052L1053 1053L1050 1055L1011 1058L1005 1060L980 1061L974 1063L844 1072L724 1074L644 1071L564 1063L560 1061L551 1061L516 1055L514 1053L507 1053L500 1050L482 1047L480 1045L465 1042L463 1040L456 1039L455 1037L450 1037L446 1034L434 1031L433 1029L430 1029L427 1026L418 1023L416 1020L403 1013L390 999L382 981L382 967L384 965L384 960L387 952L389 951L392 943L406 928L406 927L406 926L407 926L408 926L425 910L429 909L434 904L454 893L455 891L458 891L464 886L467 886L470 883L473 883L476 880L485 877L486 875L489 875L500 869L504 869L505 867L508 867L519 861L523 861L524 859L537 856L541 853L545 853L546 851L550 851L564 845L569 845L571 843L584 840L586 838L584 834L551 841L545 844L539 844L538 846L529 847L527 849L513 852L511 854L504 855L493 860L488 860L487 862L483 862L479 865L475 865L474 867L467 868L466 870L447 876L446 878L440 879L439 881L429 884L428 886L422 887L421 889L412 892L412 893L412 894L403 897L397 902L394 902L383 910L379 911L366 922L361 924L350 935L349 935L348 935L348 936L348 937L345 938L345 939L345 940L337 947L334 953L333 953L332 953L331 957L330 957L329 957L323 971L321 972L320 978L318 980L318 986L316 987L316 1011L318 1013L318 1019L320 1020L321 1027L322 1027L323 1027L326 1035L335 1044L335 1045L335 1046L336 1046L337 1046L342 1052L343 1052L344 1052L344 1053L344 1054L353 1059L355 1062L359 1063L359 1064L359 1065L362 1065L365 1068L373 1071L374 1073L377 1073L384 1078L390 1079L391 1081L397 1082L407 1087L411 1087L412 1089L426 1092L428 1094L437 1095L438 1097L444 1097L450 1100L456 1100L458 1102L469 1103L470 1105L483 1106L485 1108L493 1108L502 1111L510 1111L511 1113L529 1114L531 1116L567 1119L569 1121L597 1122L603 1124L621 1124L647 1127L683 1127L690 1129L814 1129L828 1127L861 1127L895 1124L919 1124L926 1122L963 1121L966 1119L994 1118L1000 1116L1014 1116L1019 1114L1044 1113L1046 1111L1066 1110L1094 1105L1105 1105L1107 1103L1125 1102L1128 1100L1138 1100L1141 1098L1158 1097L1160 1095L1178 1094L1179 1092L1188 1092L1191 1090L1206 1089L1208 1087L1223 1086L1224 1084L1232 1084L1235 1082L1248 1081L1250 1079L1263 1078L1265 1076L1272 1076L1279 1073L1285 1073L1287 1071L1300 1070L1301 1068L1308 1068L1310 1066L1321 1065L1322 1063L1334 1062L1335 1060L1354 1057L1355 1055L1365 1054L1366 1052L1372 1052L1378 1049L1383 1049L1384 1047L1394 1046L1395 1044L1399 1044L1405 1041L1421 1038L1422 1036L1436 1033L1437 1031L1445 1030L1446 1028L1454 1027L1461 1023L1468 1022L1469 1020L1476 1019L1477 1017L1490 1014L1491 1012L1502 1009L1503 1007L1510 1006L1511 1004L1517 1003L1518 1001L1524 1000L1529 996L1535 995L1536 993L1539 993L1540 991L1552 987L1562 980L1567 979L1568 977L1576 974L1590 964L1594 963L1602 956L1606 955L1606 954L1606 953L1615 948L1618 944L1619 944L1620 944L1620 943L1620 942L1621 942L1622 942L1627 936L1628 936L1629 936L1629 935L1629 934L1630 934L1631 934L1631 933L1631 932L1639 925L1639 924L1639 923L1640 923L1641 923L1641 922L1641 921L1647 915L1647 912L1648 912L1649 912L1658 889L1658 866L1656 859L1653 855L1652 849L1651 849L1650 849L1649 844L1648 844L1647 844L1644 838L1643 838L1642 838L1642 837L1642 836L1638 832L1637 832L1636 832L1636 831L1636 830L1630 827L1630 826L1630 825L1626 824L1618 817L1589 803L1585 803L1584 801L1580 801L1569 796L1560 795L1558 793L1549 792L1547 790L1525 787L1523 785L1507 784L1503 782L1467 779L1462 777L1416 774ZM1332 1075L1292 1085L1285 1085L1270 1090L1247 1093L1239 1096L1216 1099L1213 1101L1205 1101L1195 1104L1187 1104L1183 1106L1168 1107L1164 1109L1142 1112L1142 1184L1144 1205L1146 1208L1147 1220L1149 1221L1149 1227L1152 1233L1152 1237L1154 1238L1155 1245L1157 1246L1157 1250L1160 1254L1160 1257L1162 1258L1163 1264L1165 1265L1174 1283L1179 1288L1181 1293L1185 1296L1187 1301L1188 1301L1189 1301L1193 1308L1198 1312L1198 1313L1198 1314L1199 1314L1200 1314L1206 1320L1206 1321L1206 1322L1212 1325L1227 1339L1247 1350L1248 1352L1251 1352L1258 1357L1264 1358L1265 1360L1277 1363L1278 1365L1283 1365L1289 1368L1295 1368L1304 1371L1327 1371L1333 1368L1333 1365L1336 1362L1336 1075L1332 1075ZM851 1139L839 1141L798 1142L710 1142L667 1140L667 1365L669 1366L669 1367L669 1368L674 1371L696 1371L705 1368L712 1368L713 1366L722 1365L723 1363L727 1363L732 1360L736 1360L737 1358L743 1357L744 1355L758 1349L764 1344L767 1344L773 1338L786 1330L786 1329L786 1328L794 1323L795 1320L796 1320L797 1320L803 1314L803 1313L803 1312L808 1309L808 1308L808 1307L813 1303L816 1297L821 1293L821 1292L821 1291L831 1278L832 1274L834 1273L835 1268L840 1261L840 1258L842 1257L842 1254L850 1237L851 1229L853 1228L856 1209L858 1207L859 1186L861 1179L861 1139L851 1139Z"/>
</svg>
