<svg xmlns="http://www.w3.org/2000/svg" role="img" viewBox="0 0 2000 2000">
  <title>HaloKYC icon for light surfaces</title>
  <defs>
    <linearGradient id="blue" x1="0" y1="0" x2="1" y2="1">
      <stop offset="0" stop-color="#d6f15a"/>
      <stop offset="1" stop-color="#c8e64f"/>
    </linearGradient>
    <linearGradient id="navy" x1="0" y1="0" x2="0" y2="1">
      <stop offset="0" stop-color="#173426"/>
      <stop offset="1" stop-color="#10271c"/>
    </linearGradient>
    <linearGradient id="paper" x1="0" y1="0" x2="0" y2="1">
      <stop offset="0" stop-color="#fbf8ef"/>
      <stop offset="1" stop-color="#f7f3e8"/>
    </linearGradient>
  </defs>
  <path fill="url(#paper)" fill-rule="evenodd" d="M547 191L1465 192L1468 194L1480 194L1483 196L1499 197L1501 199L1521 202L1523 204L1531 205L1532 207L1541 208L1543 210L1547 210L1548 212L1555 213L1556 215L1560 215L1564 218L1575 221L1576 223L1579 223L1589 229L1592 229L1592 230L1592 231L1601 234L1607 239L1612 240L1620 247L1623 247L1625 250L1632 253L1632 254L1632 255L1642 260L1645 264L1650 266L1651 269L1656 271L1661 277L1669 282L1670 285L1671 285L1672 285L1672 286L1672 287L1673 287L1674 287L1675 290L1676 290L1677 290L1683 296L1683 297L1683 298L1684 298L1685 298L1688 303L1689 303L1690 303L1691 306L1696 309L1699 315L1700 315L1701 315L1701 316L1701 317L1709 324L1710 328L1711 328L1712 328L1718 338L1719 338L1720 338L1720 341L1726 347L1731 357L1734 359L1734 362L1735 362L1736 362L1739 370L1740 370L1741 370L1742 375L1743 375L1744 375L1744 378L1746 379L1747 384L1749 385L1750 390L1752 391L1755 400L1760 407L1766 425L1768 426L1769 434L1771 435L1774 449L1776 450L1779 467L1781 469L1782 482L1784 484L1785 501L1787 503L1789 537L1790 795L1788 1468L1784 1504L1782 1506L1781 1519L1779 1522L1779 1527L1777 1528L1773 1548L1771 1549L1771 1554L1769 1555L1768 1563L1766 1564L1763 1576L1762 1576L1761 1576L1761 1580L1758 1583L1757 1589L1755 1590L1755 1593L1753 1594L1753 1597L1750 1600L1750 1603L1747 1606L1744 1614L1742 1615L1728 1640L1727 1640L1726 1640L1726 1643L1717 1653L1715 1658L1712 1659L1712 1662L1711 1662L1710 1662L1704 1672L1699 1675L1699 1676L1699 1677L1675 1702L1667 1707L1667 1708L1667 1709L1664 1710L1664 1711L1664 1712L1663 1712L1662 1712L1660 1715L1659 1715L1658 1715L1658 1716L1658 1717L1657 1717L1656 1717L1653 1721L1648 1723L1648 1724L1648 1725L1640 1729L1640 1730L1640 1731L1637 1731L1637 1732L1637 1733L1633 1734L1625 1741L1598 1755L1597 1757L1594 1757L1591 1760L1586 1761L1585 1763L1581 1763L1574 1768L1568 1769L1567 1771L1563 1771L1562 1773L1547 1777L1546 1779L1541 1779L1536 1782L1531 1782L1530 1784L1520 1785L1519 1787L1514 1787L1507 1790L1500 1790L1498 1792L1447 1798L546 1798L512 1795L510 1793L495 1792L493 1790L486 1790L483 1788L474 1787L472 1785L462 1784L461 1782L456 1782L451 1779L438 1776L437 1774L433 1774L429 1771L426 1771L425 1769L419 1768L418 1766L402 1760L401 1758L393 1755L390 1752L387 1752L387 1751L387 1750L384 1750L381 1747L377 1746L370 1740L363 1737L361 1734L357 1733L357 1732L357 1731L352 1729L350 1726L346 1725L346 1724L346 1723L336 1717L336 1716L336 1715L330 1712L330 1711L330 1710L329 1710L328 1710L320 1701L319 1701L318 1701L318 1700L318 1699L315 1698L315 1697L315 1696L314 1696L313 1696L312 1693L307 1690L306 1687L305 1687L304 1687L304 1686L304 1685L303 1685L302 1685L302 1684L302 1683L295 1677L295 1676L295 1675L294 1675L293 1675L293 1674L293 1673L288 1669L282 1659L281 1659L280 1659L272 1646L269 1644L266 1637L265 1637L264 1637L260 1628L253 1619L253 1616L248 1610L247 1605L246 1605L245 1605L245 1602L242 1599L239 1590L237 1589L234 1579L232 1578L231 1571L230 1571L229 1571L226 1559L224 1558L223 1550L221 1549L221 1545L216 1532L215 1523L213 1521L212 1509L210 1506L210 1498L208 1495L207 1487L207 1471L205 1466L204 597L205 524L207 520L207 506L208 498L210 495L210 485L212 483L213 470L215 469L216 459L218 457L219 449L221 442L223 441L226 428L228 427L229 421L231 420L231 416L234 412L237 402L238 402L239 402L239 398L242 395L242 392L244 391L248 380L255 371L255 368L258 366L258 363L261 361L274 339L277 337L280 331L281 331L282 331L285 325L286 325L287 325L290 319L296 314L296 313L296 312L299 311L299 310L299 309L300 309L301 309L306 301L307 301L308 301L312 297L312 296L312 295L313 295L314 295L314 294L314 293L315 293L316 293L323 285L324 285L325 285L325 284L325 283L326 283L327 283L333 276L338 274L338 273L338 272L344 269L344 268L344 267L345 267L346 267L349 263L350 263L351 263L359 256L363 255L363 254L363 253L375 247L379 243L383 242L386 239L389 239L389 238L389 237L392 237L395 234L398 234L404 229L407 229L410 226L420 223L421 221L424 221L428 218L432 218L433 216L440 215L441 213L448 212L449 210L464 207L465 205L473 204L475 202L495 199L496 197L547 191ZM723 585L719 587L715 593L715 1058L739 1060L839 1060L894 1057L895 763L893 740L885 708L866 669L863 667L863 666L863 665L854 654L854 653L854 652L849 648L849 647L849 646L828 625L827 625L826 625L824 622L823 622L822 622L820 619L815 617L804 608L773 593L745 586L723 585ZM1294 585L1274 588L1248 596L1222 609L1217 614L1206 620L1198 628L1197 628L1196 628L1196 629L1196 630L1195 630L1194 630L1178 646L1178 647L1178 648L1174 651L1174 652L1174 653L1169 657L1165 665L1162 667L1152 687L1150 688L1150 691L1148 692L1140 711L1133 735L1130 753L1130 1031L1192 1021L1195 1019L1240 1011L1309 994L1309 593L1305 587L1301 585L1294 585ZM1386 801L1381 803L1381 807L1383 809L1411 812L1415 814L1427 815L1463 823L1465 825L1469 825L1498 836L1499 838L1504 839L1505 841L1523 851L1532 860L1542 879L1542 898L1536 912L1520 930L1519 930L1518 930L1515 934L1514 934L1513 934L1513 935L1513 936L1499 944L1497 947L1489 950L1488 952L1475 958L1474 960L1462 966L1459 966L1458 968L1452 969L1451 971L1448 971L1444 974L1441 974L1440 976L1434 977L1433 979L1429 979L1425 982L1414 985L1413 987L1391 993L1381 998L1376 998L1375 1000L1366 1001L1365 1003L1357 1004L1355 1006L1350 1006L1348 1008L1339 1009L1337 1011L1310 1017L1308 1019L1298 1020L1295 1022L1277 1025L1275 1027L1265 1028L1262 1030L1256 1030L1249 1033L1242 1033L1240 1035L1233 1035L1225 1038L1218 1038L1184 1046L1160 1049L1157 1051L1142 1052L1139 1054L1130 1054L1119 1057L1110 1057L1107 1059L1091 1060L1087 1062L1076 1062L1063 1065L1052 1065L1048 1067L983 1073L978 1075L862 1083L736 1084L672 1081L612 1075L608 1073L582 1070L579 1068L566 1067L563 1065L557 1065L554 1063L532 1059L530 1057L508 1051L507 1049L501 1048L500 1046L497 1046L493 1043L490 1043L489 1041L480 1038L479 1036L471 1032L468 1028L467 1028L466 1028L458 1020L458 1019L458 1018L450 1008L448 1001L448 985L455 968L463 959L463 958L463 957L477 943L478 943L479 943L483 938L484 938L485 938L487 935L490 935L490 934L490 933L494 932L507 922L515 919L518 916L521 916L522 914L532 910L533 908L543 905L544 903L547 903L558 897L562 897L563 895L569 894L592 884L596 884L606 879L629 873L634 869L631 864L625 864L622 866L614 867L612 869L585 875L536 891L527 896L504 904L494 910L491 910L490 912L480 915L477 918L464 924L463 926L460 926L451 933L447 934L439 941L435 942L435 943L435 944L434 944L433 944L427 950L426 950L425 950L418 958L417 958L416 958L416 959L416 960L415 960L414 960L414 961L414 962L400 977L397 984L395 985L389 1001L389 1007L387 1009L387 1024L389 1026L389 1032L395 1046L410 1064L411 1064L412 1064L416 1069L421 1071L427 1077L435 1080L436 1082L454 1091L465 1094L467 1096L471 1096L475 1099L507 1109L525 1112L528 1114L588 1125L662 1133L714 1135L715 1348L716 1351L722 1356L738 1356L749 1354L769 1348L785 1340L788 1340L789 1338L807 1329L809 1326L823 1317L826 1313L827 1313L828 1313L854 1285L854 1284L854 1283L857 1281L857 1280L857 1279L860 1277L860 1276L860 1275L868 1265L879 1243L890 1211L895 1176L895 1134L957 1130L1028 1123L1042 1120L1098 1114L1123 1109L1130 1109L1130 1185L1134 1210L1147 1247L1157 1266L1159 1267L1169 1284L1196 1313L1197 1313L1198 1313L1202 1318L1203 1318L1204 1318L1210 1324L1226 1333L1227 1335L1247 1345L1271 1353L1288 1356L1302 1356L1306 1354L1309 1349L1309 1072L1374 1055L1376 1053L1384 1052L1386 1050L1390 1050L1401 1045L1423 1039L1424 1037L1431 1036L1438 1032L1465 1023L1466 1021L1479 1017L1485 1013L1490 1012L1491 1010L1500 1007L1501 1005L1517 999L1518 997L1526 994L1528 991L1531 991L1533 988L1539 986L1541 983L1544 983L1546 980L1558 973L1560 970L1566 967L1576 956L1577 956L1578 956L1579 953L1580 953L1581 953L1581 952L1581 951L1587 946L1587 945L1587 944L1597 931L1603 911L1602 890L1592 870L1572 850L1553 840L1552 838L1519 824L1511 823L1509 821L1504 821L1486 815L1480 815L1478 813L1464 812L1461 810L1454 810L1443 807L1434 807L1431 805L1386 801Z"/>
  <path fill="url(#navy)" fill-rule="evenodd" d="M722 585L745 586L773 593L804 608L815 617L820 619L822 622L823 622L824 622L826 625L827 625L828 625L849 646L849 647L849 648L857 656L863 667L866 669L885 708L893 740L895 763L894 1057L839 1060L739 1060L715 1058L715 593L717 589L722 585ZM1293 585L1301 585L1305 587L1309 593L1309 994L1301 997L1283 1000L1280 1002L1270 1003L1267 1005L1257 1006L1216 1016L1195 1019L1192 1021L1130 1031L1130 753L1133 735L1140 711L1147 697L1147 694L1150 691L1150 688L1152 687L1162 667L1165 665L1174 651L1178 648L1178 647L1178 646L1194 630L1195 630L1196 630L1196 629L1196 628L1197 628L1198 628L1206 620L1217 614L1222 609L1248 596L1274 588L1293 585ZM1303 1072L1309 1073L1309 1349L1306 1354L1302 1356L1288 1356L1255 1348L1222 1332L1221 1330L1210 1324L1208 1321L1207 1321L1206 1321L1204 1318L1203 1318L1202 1318L1198 1313L1197 1313L1196 1313L1177 1294L1177 1293L1177 1292L1172 1288L1165 1276L1162 1274L1144 1240L1137 1221L1132 1200L1130 1185L1130 1109L1134 1106L1214 1093L1232 1088L1238 1088L1241 1086L1252 1085L1255 1083L1261 1083L1277 1078L1287 1077L1303 1072ZM881 1133L893 1133L893 1134L893 1135L894 1135L895 1135L895 1176L892 1201L882 1236L868 1265L866 1266L860 1277L850 1288L850 1289L850 1290L844 1295L844 1296L844 1297L828 1313L827 1313L826 1313L823 1317L822 1317L821 1317L807 1329L789 1338L788 1340L785 1340L769 1348L749 1354L738 1356L722 1356L721 1354L720 1354L719 1354L715 1348L716 1135L821 1136L881 1133Z"/>
  <path fill="url(#blue)" fill-rule="evenodd" d="M1385 801L1431 805L1434 807L1443 807L1454 810L1461 810L1464 812L1478 813L1480 815L1486 815L1504 821L1509 821L1511 823L1519 824L1552 838L1553 840L1572 850L1589 866L1589 867L1589 868L1594 873L1599 882L1603 895L1602 917L1594 936L1589 941L1587 946L1581 951L1581 952L1581 953L1578 954L1578 955L1578 956L1577 956L1576 956L1566 967L1546 980L1544 983L1541 983L1539 986L1536 986L1531 991L1528 991L1526 994L1523 994L1517 999L1501 1005L1500 1007L1491 1010L1490 1012L1485 1013L1479 1017L1466 1021L1465 1023L1438 1032L1431 1036L1424 1037L1423 1039L1419 1039L1414 1042L1386 1050L1384 1052L1376 1053L1374 1055L1337 1064L1324 1069L1311 1071L1309 1073L1297 1073L1287 1077L1277 1078L1261 1083L1255 1083L1252 1085L1241 1086L1238 1088L1232 1088L1214 1093L1134 1106L1131 1107L1131 1108L1131 1109L1028 1123L895 1135L894 1135L893 1135L893 1134L893 1133L821 1136L716 1135L715 1141L714 1135L693 1135L640 1131L557 1120L507 1109L475 1099L471 1096L459 1093L436 1082L435 1080L427 1077L421 1071L416 1069L412 1064L411 1064L410 1064L395 1046L389 1032L389 1026L387 1024L387 1009L389 1007L389 1001L392 992L398 980L406 971L406 970L406 969L414 962L414 961L414 960L415 960L416 960L416 959L416 958L417 958L418 958L425 950L426 950L427 950L429 947L435 944L435 943L435 942L439 941L447 934L451 933L460 926L463 926L464 924L477 918L480 915L483 915L504 904L527 896L536 891L585 875L612 869L614 867L622 866L625 864L631 864L634 869L629 873L606 879L596 884L592 884L569 894L563 895L562 897L558 897L554 900L544 903L543 905L533 908L532 910L522 914L521 916L518 916L515 919L507 922L494 932L490 933L490 934L490 935L487 935L479 943L478 943L477 943L463 957L463 958L463 959L455 968L448 985L448 1001L450 1008L452 1009L458 1020L466 1028L467 1028L468 1028L471 1032L472 1032L473 1032L480 1038L489 1041L490 1043L493 1043L497 1046L500 1046L501 1048L507 1049L508 1051L512 1051L516 1054L521 1054L532 1059L554 1063L557 1065L563 1065L566 1067L579 1068L582 1070L589 1070L600 1073L608 1073L612 1075L672 1081L736 1084L862 1083L978 1075L983 1073L994 1073L1010 1070L1022 1070L1026 1068L1063 1065L1076 1062L1087 1062L1091 1060L1107 1059L1110 1057L1119 1057L1130 1054L1139 1054L1142 1052L1157 1051L1160 1049L1184 1046L1218 1038L1225 1038L1233 1035L1240 1035L1242 1033L1249 1033L1256 1030L1262 1030L1265 1028L1275 1027L1277 1025L1295 1022L1298 1020L1308 1019L1310 1017L1319 1016L1321 1014L1348 1008L1350 1006L1355 1006L1357 1004L1365 1003L1366 1001L1375 1000L1376 998L1381 998L1391 993L1413 987L1414 985L1420 984L1429 979L1433 979L1434 977L1440 976L1441 974L1451 971L1452 969L1458 968L1459 966L1462 966L1483 955L1489 950L1497 947L1499 944L1500 944L1501 944L1502 942L1513 936L1513 935L1513 934L1514 934L1515 934L1518 930L1519 930L1520 930L1536 912L1542 898L1542 879L1532 860L1523 851L1505 841L1504 839L1499 838L1498 836L1495 836L1478 828L1465 825L1463 823L1427 815L1415 814L1411 812L1383 809L1381 807L1381 803L1385 801Z"/>
</svg>
