<svg xmlns="http://www.w3.org/2000/svg" role="img" viewBox="0 0 1774 887">
  <title>HaloKYC horizontal logo for light surfaces</title>
  <defs>
    <linearGradient id="blue" x1="0" y1="0" x2="1" y2="1">
      <stop offset="0" stop-color="#d6f15a"/>
      <stop offset="1" stop-color="#c8e64f"/>
    </linearGradient>
    <linearGradient id="navy" x1="0" y1="0" x2="0" y2="1">
      <stop offset="0" stop-color="#173426"/>
      <stop offset="1" stop-color="#10271c"/>
    </linearGradient>
    <linearGradient id="paper" x1="0" y1="0" x2="0" y2="1">
      <stop offset="0" stop-color="#fbf8ef"/>
      <stop offset="1" stop-color="#f7f3e8"/>
    </linearGradient>
  </defs>
  <path fill="url(#navy)" fill-rule="evenodd" d="M320 330L334 332L349 340L358 348L369 365L372 376L373 389L371 473L317 472L317 333L320 330ZM501 332L506 332L508 334L508 453L454 464L453 381L455 372L460 361L470 348L471 348L472 348L482 339L501 332ZM676 369L698 369L698 426L706 419L716 414L724 412L739 412L756 418L769 431L776 450L776 525L755 525L755 455L749 441L745 437L735 433L720 433L714 435L710 437L701 447L698 455L698 524L676 525L676 369ZM964 369L986 369L986 525L964 525L964 369ZM856 412L880 413L893 418L904 428L905 414L927 415L926 525L905 525L904 511L895 520L879 527L852 527L833 519L817 503L812 494L808 480L808 459L811 448L818 435L826 426L844 415L856 412ZM1066 412L1090 413L1111 422L1121 431L1121 432L1121 433L1127 439L1131 447L1135 462L1134 483L1130 495L1124 505L1113 516L1112 516L1111 516L1104 522L1085 528L1062 527L1052 524L1040 517L1036 512L1032 510L1032 509L1032 508L1024 499L1017 479L1017 461L1019 452L1029 433L1044 420L1057 414L1066 412ZM866 432L852 435L844 439L836 447L830 461L830 479L835 491L843 500L855 506L869 508L876 507L888 502L898 493L904 481L905 463L901 451L893 441L883 435L866 432ZM1076 432L1058 436L1045 447L1039 461L1039 479L1044 491L1052 500L1067 507L1079 508L1095 503L1107 492L1113 478L1113 461L1107 447L1099 439L1089 434L1076 432ZM506 475L508 476L508 558L506 560L500 560L491 558L481 553L480 551L475 549L462 535L456 523L453 512L453 487L490 480L506 475ZM319 495L372 495L371 519L362 537L352 548L351 548L350 548L345 553L326 560L320 560L317 558L317 497L319 495Z"/>
  <path fill="url(#blue)" fill-rule="evenodd" d="M1510 388L1528 389L1542 393L1555 400L1567 411L1567 414L1554 428L1553 428L1552 428L1540 417L1531 413L1523 411L1503 412L1488 419L1478 429L1472 440L1469 451L1470 471L1476 485L1489 498L1503 504L1522 505L1541 499L1553 489L1566 503L1566 506L1553 517L1543 522L1523 527L1505 527L1496 525L1487 522L1472 513L1461 502L1461 501L1461 500L1455 493L1450 482L1447 470L1448 443L1452 430L1460 416L1470 405L1471 405L1472 405L1483 396L1495 391L1510 388ZM1178 390L1200 391L1200 454L1262 390L1290 390L1290 391L1290 392L1235 446L1235 447L1235 448L1255 473L1255 474L1255 475L1258 477L1258 478L1258 479L1261 481L1261 482L1261 483L1265 486L1268 492L1272 495L1275 501L1294 523L1294 524L1294 525L1267 525L1263 518L1258 514L1258 513L1258 512L1246 498L1246 497L1246 496L1242 493L1240 488L1232 480L1230 475L1220 464L1220 463L1220 462L1200 481L1200 524L1178 525L1178 390ZM1310 390L1335 390L1373 446L1410 390L1435 390L1432 397L1429 399L1421 413L1418 415L1406 435L1403 437L1395 451L1392 453L1392 454L1392 455L1384 465L1384 525L1362 524L1362 465L1358 461L1354 453L1351 451L1351 450L1351 449L1348 447L1337 429L1331 423L1320 405L1314 399L1314 398L1314 397L1310 393L1310 390ZM531 394L567 399L587 407L597 416L599 421L599 428L596 435L585 446L561 459L527 471L481 482L408 493L363 496L319 495L317 497L317 496L317 495L301 495L269 491L243 484L226 475L221 470L217 462L219 451L224 446L224 445L224 444L234 436L261 423L293 414L294 417L292 418L279 421L254 432L239 444L237 448L237 457L239 458L239 459L239 460L245 465L263 472L297 478L347 480L421 475L489 464L528 454L555 444L571 435L579 427L581 421L580 416L573 408L553 400L531 397L531 394Z"/>
</svg>
