<svg xmlns="http://www.w3.org/2000/svg" role="img" viewBox="0 0 1774 887">
  <title>HaloKYC horizontal logo for dark surfaces</title>
  <defs>
    <linearGradient id="blue" x1="0" y1="0" x2="1" y2="1">
      <stop offset="0" stop-color="#d6f15a"/>
      <stop offset="1" stop-color="#c8e64f"/>
    </linearGradient>
    <linearGradient id="navy" x1="0" y1="0" x2="0" y2="1">
      <stop offset="0" stop-color="#173426"/>
      <stop offset="1" stop-color="#10271c"/>
    </linearGradient>
    <linearGradient id="paper" x1="0" y1="0" x2="0" y2="1">
      <stop offset="0" stop-color="#fbf8ef"/>
      <stop offset="1" stop-color="#f7f3e8"/>
    </linearGradient>
  </defs>
  <path fill="url(#paper)" fill-rule="evenodd" d="M327 310L340 311L359 320L372 333L378 343L382 357L382 455L325 455L325 312L327 310ZM511 310L517 310L520 314L519 436L462 446L462 362L465 349L474 333L484 323L501 313L511 310ZM687 352L709 352L709 410L716 403L725 398L735 395L749 395L765 400L766 402L771 404L780 414L786 428L788 440L787 509L765 508L765 437L761 427L755 421L746 417L728 418L720 422L713 430L709 444L709 509L686 508L687 352ZM972 352L995 352L994 509L972 509L972 352ZM541 377L575 381L598 390L608 399L610 403L609 416L597 429L580 439L543 453L512 461L465 470L417 476L366 479L315 478L284 475L247 466L233 459L223 447L224 433L234 422L255 410L297 396L301 396L301 399L275 407L257 416L255 419L248 423L243 431L244 440L249 445L263 452L278 456L319 461L399 460L460 453L518 442L540 436L567 426L583 417L591 407L591 400L584 391L564 383L541 380L541 377ZM865 395L884 395L892 397L907 405L910 409L911 409L912 409L912 410L912 411L914 397L936 397L936 509L914 509L913 494L907 501L892 509L884 511L860 510L851 507L839 500L835 495L834 495L833 495L833 494L833 493L824 483L819 471L817 461L817 445L821 430L829 416L839 406L854 398L865 395ZM1074 395L1097 396L1111 401L1112 403L1119 406L1132 419L1138 430L1142 444L1141 468L1138 477L1131 489L1120 500L1113 503L1112 505L1093 511L1068 510L1058 507L1045 499L1032 484L1024 462L1025 439L1028 430L1035 418L1041 411L1042 411L1043 411L1046 407L1047 407L1048 407L1055 401L1074 395ZM873 416L861 419L848 428L840 444L840 462L847 477L856 485L869 490L883 490L897 485L906 477L913 463L914 449L909 434L899 423L889 418L873 416ZM1084 416L1068 419L1058 425L1049 438L1046 450L1047 463L1052 475L1061 484L1075 490L1090 490L1102 486L1114 475L1120 460L1120 446L1113 430L1107 424L1096 418L1084 416ZM515 461L519 461L520 464L520 542L517 545L511 545L492 538L491 536L483 532L473 521L467 511L463 498L462 472L507 464L515 461ZM325 480L382 480L382 497L378 510L373 519L359 534L345 542L334 545L327 545L325 543L325 480Z"/>
  <path fill="url(#blue)" fill-rule="evenodd" d="M1517 371L1539 371L1554 375L1566 381L1581 395L1581 396L1581 397L1567 412L1564 412L1561 407L1560 407L1559 407L1555 402L1540 395L1521 394L1511 396L1496 404L1486 415L1482 423L1479 435L1480 454L1487 470L1502 483L1516 488L1537 488L1555 481L1564 472L1567 472L1571 476L1571 477L1571 478L1581 487L1581 488L1581 489L1574 496L1573 496L1572 496L1565 502L1557 506L1539 511L1509 510L1496 506L1485 500L1469 485L1469 484L1469 483L1465 479L1459 467L1456 455L1455 437L1457 424L1461 412L1468 400L1476 391L1477 391L1478 391L1489 381L1501 375L1517 371ZM1186 373L1208 374L1208 436L1269 373L1298 374L1242 430L1242 431L1242 432L1256 449L1256 450L1256 451L1260 454L1269 468L1273 471L1276 477L1284 485L1287 491L1291 494L1291 495L1291 496L1300 506L1300 509L1273 509L1227 447L1226 447L1225 447L1208 464L1208 508L1184 508L1184 375L1186 373ZM1316 373L1343 374L1344 378L1347 380L1379 429L1382 428L1385 421L1392 413L1393 409L1395 408L1401 397L1404 395L1417 374L1444 374L1430 396L1422 405L1418 413L1415 415L1411 423L1408 425L1402 436L1392 448L1391 509L1368 508L1368 449L1364 445L1360 437L1357 435L1357 434L1357 433L1354 431L1343 413L1340 411L1329 393L1315 376L1316 373Z"/>
</svg>
