<svg width="102" height="28" viewBox="0 0 102 28" fill="none" xmlns="http://www.w3.org/2000/svg">
<path d="M8.63887 23.5286C8.27383 21.6856 7.45254 19.1553 4.68445 11.2836H0L6.41828 27.6206H10.7984L16.8822 11.2834H12.2889C9.67297 18.999 8.94305 21.467 8.63887 23.5286Z" fill="#03282C"/>
<path d="M25.1497 10.9399C20.3437 10.9399 16.9365 14.5947 16.9365 19.4991C16.9365 24.5593 20.4651 27.933 25.3928 27.933C28.5236 27.933 31.1995 26.2656 32.4714 23.8875L29.2559 22.0918C28.6171 23.3724 27.3092 24.2782 25.4233 24.2782C23.2029 24.2782 21.4689 22.8413 21.2561 20.8422H33.332C33.545 14.2823 29.986 10.9399 25.1497 10.9399ZM21.2257 17.7495C21.3777 15.8442 22.9899 14.5011 25.1497 14.5011C27.3094 14.5011 28.8606 15.8442 28.9518 17.7495H21.2257Z" fill="#03282C"/>
<path d="M50.6709 11.2837H46.3516V27.6208H50.6709V11.2837Z" fill="#03282C"/>
<path d="M71.6617 7.66007C72.2396 7.66007 72.909 7.75373 73.578 7.94104V4.38009C72.8481 4.13029 71.8443 3.94263 70.8405 3.94263C67.9813 3.94263 65.1218 5.50455 65.1218 10.1277V11.2835H58.8226V10.7524C58.5791 8.40953 59.4916 7.66007 61.043 7.66007C61.6209 7.66007 62.2902 7.75373 62.9594 7.94104V4.38009C62.2294 4.13029 61.2256 3.94263 60.2219 3.94263C57.3626 3.94263 54.5031 5.50455 54.5031 10.1277V11.2835H52.6172V14.7495H54.5031V27.6205H58.8226V14.7495H65.1218V27.6205H69.4413V14.7495H73.578V11.2835H69.4413V10.7524C69.1979 8.40953 70.1104 7.66007 71.6617 7.66007Z" fill="#03282C"/>
<path d="M39.7964 16.2899V15.652L39.3266 11.2839H35.5684V27.6209H39.7964V21.0006C39.7964 17.5472 42.1183 15.4056 44.666 15.4056V11.0964C41.6746 11.4021 39.7965 13.1706 39.7964 16.2899Z" fill="#03282C"/>
<path d="M50.7054 5.38232H46.3164V8.93791H50.7054V5.38232Z" fill="#03282C"/>
<path d="M92.6484 11.141V22.1684L92.6847 22.168C93.4062 16.5976 96.6146 12.9568 101.423 11.2237V0C95.8939 0.990301 92.6484 4.58014 92.6484 11.141Z" fill="#14E5C5"/>
<path d="M82.3379 20.5726L91.1121 27.9998V13.2688L82.3379 5.84155V20.5726Z" fill="#14E5C5"/>
</svg>
